<svg xmlns="http://www.w3.org/2000/svg" xmlns:xlink="http://www.w3.org/1999/xlink" version="1.1" x="0px" y="0px" viewBox="0 0 24 30" enable-background="new 0 0 24 24" xml:space="preserve"><g><path d="M19.604,21.499c0.249-0.244,0.495-0.493,0.741-0.741c0.324-0.327,0.648-0.655,0.979-0.973   c1.499-1.436,1.681-3.89,0.405-5.473c-0.249-0.309-0.498-0.618-0.747-0.926c-0.018-0.032-0.04-0.062-0.067-0.088   c-0.005-0.005-0.011-0.01-0.016-0.014c-3.142-3.895-6.29-7.784-9.447-11.666c-0.47-0.578-1.067-0.984-1.726-1.235   C9.717,0.376,9.712,0.367,9.702,0.361C9.649,0.328,9.591,0.313,9.532,0.307C9.209,0.204,8.877,0.128,8.53,0.109   C7.386,0.048,6.274,0.476,5.428,1.316C4.032,2.698,2.643,4.088,1.26,5.483C0.425,6.323-0.003,7.419,0.054,8.567   C0.071,8.917,0.148,9.253,0.252,9.58C0.258,9.635,0.275,9.69,0.306,9.741c0.003,0.006,0.01,0.007,0.013,0.013   c0.248,0.668,0.655,1.275,1.236,1.754c0.829,0.685,1.668,1.359,2.506,2.033l3.243,2.624c1.959,1.588,4.321,3.505,6.005,4.862   c0.011,0.009,0.021,0.018,0.032,0.025c0.333,0.269,0.639,0.515,0.909,0.73c0.735,0.591,1.623,0.882,2.51,0.882   C17.79,22.665,18.817,22.273,19.604,21.499z M1.828,6.046C3.209,4.652,4.597,3.265,5.99,1.884c0.643-0.636,1.461-0.981,2.323-0.981   c0.059,0,0.116,0.002,0.175,0.005c0.136,0.007,0.266,0.04,0.398,0.064c-0.062,0.117-0.124,0.237-0.19,0.367   C8.152,2.4,7.408,3.853,5.603,5.659C3.869,7.392,2.286,8.214,1.238,8.758c-0.116,0.06-0.219,0.115-0.323,0.169   c-0.024-0.133-0.056-0.264-0.063-0.4C0.808,7.607,1.153,6.726,1.828,6.046z M7.808,15.544l-2.35-1.905H5.457l-0.895-0.721   c-0.836-0.672-1.672-1.344-2.498-2.027c-0.402-0.332-0.703-0.738-0.91-1.184c0.139-0.075,0.288-0.153,0.453-0.239   c1.091-0.566,2.74-1.423,4.562-3.243C8.064,4.33,8.872,2.749,9.408,1.703c0.091-0.177,0.174-0.338,0.257-0.489   c0.441,0.207,0.841,0.508,1.166,0.909c3.096,3.806,6.183,7.619,9.264,11.437l-6.55,6.63C11.885,18.851,9.665,17.05,7.808,15.544z    M14.171,20.694l6.429-6.508c0.169,0.209,0.338,0.419,0.507,0.628c1.021,1.267,0.871,3.238-0.336,4.393   c-0.336,0.323-0.665,0.655-0.994,0.987c-0.243,0.246-0.486,0.492-0.733,0.734c-1.174,1.154-3.02,1.253-4.293,0.23   C14.572,21.017,14.378,20.861,14.171,20.694z"/><path d="M22.567,20.152l0.7,0.7c0.078,0.078,0.181,0.117,0.283,0.117s0.205-0.039,0.283-0.117c0.156-0.156,0.156-0.41,0-0.566   l-0.7-0.699c-0.156-0.156-0.41-0.156-0.566,0S22.411,19.997,22.567,20.152z"/><path d="M23.224,22.985c0.156-0.156,0.156-0.41,0-0.566l-0.714-0.714c-0.156-0.156-0.41-0.156-0.566,0s-0.156,0.41,0,0.566   l0.714,0.714c0.078,0.078,0.181,0.117,0.283,0.117S23.146,23.064,23.224,22.985z"/><path d="M19.632,22.505c-0.156,0.156-0.156,0.41,0,0.566l0.708,0.708c0.078,0.078,0.181,0.117,0.283,0.117s0.205-0.039,0.283-0.117   c0.156-0.156,0.156-0.41,0-0.566l-0.708-0.708C20.042,22.349,19.788,22.349,19.632,22.505z"/></g><text x="0" y="39" fill="#000000" font-size="5px" font-weight="bold" font-family="'Helvetica Neue', Helvetica, Arial-Unicode, Arial, Sans-serif">Created by Atif Arshad</text><text x="0" y="44" fill="#000000" font-size="5px" font-weight="bold" font-family="'Helvetica Neue', Helvetica, Arial-Unicode, Arial, Sans-serif">from the Noun Project</text></svg>